<svg width="200" height="40" viewBox="0 0 200 40" fill="none" xmlns="http://www.w3.org/2000/svg">
<path d="M160.031 28.0561C160.031 26.6908 160.351 25.4641 160.991 24.3761C161.652 23.2668 162.559 22.4028 163.711 21.7841C164.884 21.1441 166.217 20.8241 167.711 20.8241C169.225 20.8241 170.537 21.1441 171.647 21.7841C172.777 22.4028 173.652 23.2668 174.271 24.3761C174.889 25.4641 175.199 26.6908 175.199 28.0561C175.199 29.4428 174.889 30.6908 174.271 31.8001C173.652 32.8881 172.777 33.7521 171.647 34.3921C170.516 35.0321 169.183 35.3521 167.647 35.3521C166.196 35.3521 164.895 35.0641 163.743 34.4881C162.591 33.8908 161.684 33.0481 161.023 31.9601C160.361 30.8508 160.031 29.5494 160.031 28.0561ZM163.711 28.0881C163.711 28.8988 163.881 29.6241 164.223 30.2641C164.564 30.9041 165.033 31.4161 165.631 31.8001C166.228 32.1628 166.889 32.3441 167.615 32.3441C168.767 32.3441 169.705 31.9388 170.431 31.1281C171.156 30.3174 171.519 29.3041 171.519 28.0881C171.519 26.8934 171.156 25.8908 170.431 25.0801C169.705 24.2481 168.767 23.8321 167.615 23.8321C166.868 23.8321 166.196 24.0241 165.599 24.4081C165.023 24.7921 164.564 25.3041 164.223 25.9441C163.881 26.5841 163.711 27.2988 163.711 28.0881Z" fill="black"/>
<path d="M137.541 21.4321L137.829 24.1841L137.701 23.9601C138.213 22.9788 138.907 22.2108 139.781 21.6561C140.677 21.1014 141.712 20.8241 142.885 20.8241C143.995 20.8241 144.923 21.0801 145.669 21.5921C146.437 22.0828 146.917 22.7974 147.109 23.7361L146.949 23.8321C147.504 22.9148 148.219 22.1894 149.093 21.6561C149.968 21.1014 150.885 20.8241 151.845 20.8241C153.189 20.8241 154.256 21.1974 155.045 21.9441C155.835 22.6908 156.24 23.6721 156.261 24.8881V35.0001H152.645V26.3281C152.624 25.6668 152.485 25.1228 152.229 24.6961C151.995 24.2481 151.525 24.0028 150.821 23.9601C150.053 23.9601 149.392 24.2054 148.837 24.6961C148.283 25.1654 147.856 25.7841 147.557 26.5521C147.259 27.2988 147.099 28.0988 147.077 28.9521V35.0001H143.429V26.3281C143.408 25.6668 143.259 25.1228 142.981 24.6961C142.704 24.2481 142.213 24.0028 141.509 23.9601C140.784 23.9601 140.144 24.2054 139.589 24.6961C139.035 25.1654 138.608 25.7841 138.309 26.5521C138.032 27.3201 137.893 28.1201 137.893 28.9521V35.0001H134.245V21.4321H137.541Z" fill="black"/>
<path d="M123.616 35.3521C122.016 35.3521 120.65 35.0428 119.52 34.4241C118.389 33.8054 117.514 32.9521 116.896 31.8641C116.298 30.7548 116 29.4961 116 28.0881C116 26.7441 116.341 25.5281 117.024 24.4401C117.728 23.3308 118.656 22.4561 119.808 21.8161C120.981 21.1548 122.272 20.8241 123.68 20.8241C125.557 20.8241 127.104 21.3681 128.32 22.4561C129.536 23.5228 130.346 25.0481 130.752 27.0321L119.84 30.7121L119.008 28.6641L127.456 25.6561L126.72 26.0721C126.485 25.4321 126.112 24.8774 125.6 24.4081C125.088 23.9388 124.362 23.7041 123.424 23.7041C122.293 23.7041 121.376 24.0988 120.672 24.8881C119.968 25.6561 119.616 26.6588 119.616 27.8961C119.616 29.2401 120 30.3068 120.768 31.0961C121.557 31.8641 122.528 32.2481 123.68 32.2481C124.234 32.2481 124.768 32.1521 125.28 31.9601C125.792 31.7681 126.272 31.5121 126.72 31.1921L128.384 33.8801C127.68 34.3281 126.901 34.6908 126.048 34.9681C125.216 35.2241 124.405 35.3521 123.616 35.3521Z" fill="black"/>
<path d="M93.51 21.4321L93.798 24.1841L93.67 23.9601C94.182 22.9788 94.8753 22.2108 95.75 21.6561C96.646 21.1014 97.6807 20.8241 98.854 20.8241C99.9633 20.8241 100.891 21.0801 101.638 21.5921C102.406 22.0828 102.886 22.7974 103.078 23.7361L102.918 23.8321C103.473 22.9148 104.187 22.1894 105.062 21.6561C105.937 21.1014 106.854 20.8241 107.814 20.8241C109.158 20.8241 110.225 21.1974 111.014 21.9441C111.803 22.6908 112.209 23.6721 112.23 24.8881V35.0001H108.614V26.3281C108.593 25.6668 108.454 25.1228 108.198 24.6961C107.963 24.2481 107.494 24.0028 106.79 23.9601C106.022 23.9601 105.361 24.2054 104.806 24.6961C104.251 25.1654 103.825 25.7841 103.526 26.5521C103.227 27.2988 103.067 28.0988 103.046 28.9521V35.0001H99.398V26.3281C99.3767 25.6668 99.2273 25.1228 98.95 24.6961C98.6727 24.2481 98.182 24.0028 97.478 23.9601C96.7527 23.9601 96.1127 24.2054 95.558 24.6961C95.0033 25.1654 94.5767 25.7841 94.278 26.5521C94.0007 27.3201 93.862 28.1201 93.862 28.9521V35.0001H90.214V21.4321H93.51Z" fill="black"/>
<path d="M71.2808 28.0561C71.2808 26.6908 71.6008 25.4641 72.2408 24.3761C72.9021 23.2668 73.8088 22.4028 74.9608 21.7841C76.1341 21.1441 77.4674 20.8241 78.9608 20.8241C80.4754 20.8241 81.7874 21.1441 82.8968 21.7841C84.0274 22.4028 84.9021 23.2668 85.5208 24.3761C86.1394 25.4641 86.4488 26.6908 86.4488 28.0561C86.4488 29.4428 86.1394 30.6908 85.5208 31.8001C84.9021 32.8881 84.0274 33.7521 82.8968 34.3921C81.7661 35.0321 80.4328 35.3521 78.8968 35.3521C77.4461 35.3521 76.1448 35.0641 74.9928 34.4881C73.8408 33.8908 72.9341 33.0481 72.2728 31.9601C71.6114 30.8508 71.2808 29.5494 71.2808 28.0561ZM74.9608 28.0881C74.9608 28.8988 75.1314 29.6241 75.4728 30.2641C75.8141 30.9041 76.2834 31.4161 76.8808 31.8001C77.4781 32.1628 78.1394 32.3441 78.8648 32.3441C80.0168 32.3441 80.9554 31.9388 81.6808 31.1281C82.4061 30.3174 82.7688 29.3041 82.7688 28.0881C82.7688 26.8934 82.4061 25.8908 81.6808 25.0801C80.9554 24.2481 80.0168 23.8321 78.8648 23.8321C78.1181 23.8321 77.4461 24.0241 76.8488 24.4081C76.2728 24.7921 75.8141 25.3041 75.4728 25.9441C75.1314 26.5841 74.9608 27.2988 74.9608 28.0881Z" fill="black"/>
<path d="M56.2452 35.0001V10.0081H59.8932V35.0001H56.2452ZM63.2532 25.8801L69.4612 35.0001H65.2052L60.8212 27.9601L63.2532 25.8801ZM58.7732 30.9361L58.4212 27.4481L66.6452 21.1121L68.8532 23.0641L58.7732 30.9361Z" fill="black"/>
<path d="M37.312 28.0561C37.312 26.6908 37.632 25.4641 38.272 24.3761C38.9333 23.2668 39.84 22.4028 40.992 21.7841C42.1653 21.1441 43.4987 20.8241 44.992 20.8241C46.5067 20.8241 47.8187 21.1441 48.928 21.7841C50.0587 22.4028 50.9333 23.2668 51.552 24.3761C52.1707 25.4641 52.48 26.6908 52.48 28.0561C52.48 29.4428 52.1707 30.6908 51.552 31.8001C50.9333 32.8881 50.0587 33.7521 48.928 34.3921C47.7973 35.0321 46.464 35.3521 44.928 35.3521C43.4773 35.3521 42.176 35.0641 41.024 34.4881C39.872 33.8908 38.9653 33.0481 38.304 31.9601C37.6427 30.8508 37.312 29.5494 37.312 28.0561ZM40.992 28.0881C40.992 28.8988 41.1627 29.6241 41.504 30.2641C41.8453 30.9041 42.3147 31.4161 42.912 31.8001C43.5093 32.1628 44.1707 32.3441 44.896 32.3441C46.048 32.3441 46.9867 31.9388 47.712 31.1281C48.4373 30.3174 48.8 29.3041 48.8 28.0881C48.8 26.8934 48.4373 25.8908 47.712 25.0801C46.9867 24.2481 46.048 23.8321 44.896 23.8321C44.1493 23.8321 43.4773 24.0241 42.88 24.4081C42.304 24.7921 41.8453 25.3041 41.504 25.9441C41.1627 26.5841 40.992 27.2988 40.992 28.0881Z" fill="black"/>
<path d="M27.744 15.4801H31.424V21.4321H34.944V24.2801H31.424V35.0001H27.744V24.2801H25.44V21.4321H27.744V15.4801Z" fill="black"/>
</svg>
